<svg xmlns="http://www.w3.org/2000/svg" viewBox="0 0 45 45" shape-rendering="crispEdges"><path fill="#ffffff" d="M0 0h45v45H0z"/><path stroke="#0d0d10" d="M2 2.5h7m1 0h2m1 0h1m1 0h1m2 0h1m4 0h3m1 0h1m2 0h5m1 0h7M2 3.5h1m5 0h1m1 0h2m2 0h1m1 0h1m3 0h2m3 0h1m1 0h3m1 0h1m4 0h1m5 0h1M2 4.5h1m1 0h3m1 0h1m1 0h1m1 0h1m1 0h3m2 0h3m1 0h1m1 0h1m1 0h1m5 0h2m1 0h1m1 0h3m1 0h1M2 5.5h1m1 0h3m1 0h1m3 0h2m2 0h2m4 0h3m3 0h3m1 0h2m2 0h1m1 0h3m1 0h1M2 6.5h1m1 0h3m1 0h1m3 0h2m1 0h2m1 0h1m2 0h2m2 0h3m2 0h1m1 0h3m1 0h1m1 0h3m1 0h1M2 7.5h1m5 0h1m1 0h1m3 0h2m2 0h1m5 0h1m2 0h1m1 0h3m4 0h1m5 0h1M2 8.5h7m1 0h1m1 0h1m1 0h1m1 0h1m1 0h1m1 0h1m1 0h1m1 0h1m1 0h1m1 0h1m1 0h1m1 0h1m1 0h1m1 0h7M10 9.5h2m2 0h1m2 0h1m1 0h3m2 0h2m1 0h1m2 0h1m2 0h2M4 10.5h3m1 0h1m1 0h2m1 0h2m4 0h2m1 0h1m3 0h1m4 0h1m1 0h5m2 0h3M2 11.5h3m1 0h2m1 0h1m1 0h2m1 0h1m1 0h2m1 0h4m2 0h2m1 0h1m1 0h1m2 0h6m1 0h3M2 12.5h1m1 0h3m1 0h2m1 0h1m1 0h1m1 0h1m3 0h4m1 0h1m1 0h1m2 0h1m4 0h3M7 13.5h1m1 0h4m5 0h2m2 0h4m1 0h2m1 0h1m2 0h2m2 0h1m1 0h1m2 0h1M3 14.5h3m1 0h2m1 0h3m1 0h2m2 0h1m2 0h3m1 0h1m1 0h2m1 0h2m1 0h1m5 0h3M3 15.5h2m1 0h2m1 0h1m1 0h3m2 0h1m3 0h2m1 0h1m1 0h2m2 0h1m3 0h1m1 0h4m2 0h2M2 16.5h1m1 0h2m1 0h2m1 0h1m1 0h1m1 0h4m5 0h1m1 0h2m1 0h5m1 0h2m1 0h1m1 0h2M5 17.5h2m2 0h5m3 0h2m6 0h5m4 0h1m1 0h2m1 0h1m1 0h2M2 18.5h1m1 0h1m2 0h2m1 0h2m2 0h4m2 0h1m2 0h5m1 0h3m3 0h1m1 0h1m2 0h1M3 19.5h1m1 0h3m4 0h2m2 0h2m3 0h2m1 0h1m5 0h4m2 0h3m3 0h1M2 20.5h5m1 0h1m2 0h1m4 0h6m1 0h2m2 0h1m1 0h3m2 0h1m3 0h2M3 21.5h3m3 0h1m3 0h1m1 0h2m1 0h3m1 0h1m3 0h2m2 0h3m2 0h2m1 0h2m1 0h2M2 22.5h2m3 0h2m1 0h3m2 0h1m1 0h1m2 0h2m3 0h1m2 0h1m11 0h1m1 0h1M2 23.5h1m3 0h2m1 0h4m2 0h2m1 0h1m1 0h1m1 0h2m2 0h2m2 0h1m1 0h8m1 0h2M2 24.5h1m2 0h2m1 0h4m2 0h7m2 0h2m1 0h2m1 0h1m1 0h1m3 0h3m1 0h1M2 25.5h1m6 0h2m4 0h1m1 0h1m2 0h2m3 0h2m1 0h3m3 0h1m3 0h2M3 26.5h2m2 0h2m3 0h3m2 0h1m1 0h2m1 0h3m3 0h2m1 0h1m8 0h1M3 27.5h4m2 0h1m2 0h5m2 0h1m2 0h2m3 0h2m1 0h1m2 0h1m1 0h5m1 0h2M2 28.5h2m2 0h3m3 0h3m3 0h2m1 0h1m2 0h2m2 0h2m1 0h2m1 0h1m1 0h3M3 29.5h1m2 0h1m2 0h1m1 0h6m2 0h3m3 0h1m4 0h1m2 0h2m1 0h1m1 0h2M2 30.5h2m2 0h4m1 0h1m1 0h3m2 0h2m6 0h1m4 0h1m1 0h1m5 0h2M2 31.5h2m6 0h3m1 0h1m1 0h5m1 0h1m2 0h3m1 0h3m1 0h8m1 0h1M2 32.5h1m1 0h2m1 0h2m1 0h4m2 0h1m1 0h1m2 0h2m4 0h1m3 0h1m3 0h2m1 0h3M2 33.5h1m8 0h1m2 0h4m1 0h1m1 0h1m1 0h3m1 0h1m2 0h1m2 0h5m1 0h1m1 0h2M2 34.5h1m2 0h2m1 0h3m1 0h2m7 0h1m3 0h2m4 0h1m1 0h6m1 0h2M10 35.5h1m2 0h1m1 0h8m2 0h1m6 0h1m1 0h1m3 0h1m1 0h3M2 36.5h7m3 0h1m1 0h5m1 0h3m1 0h1m3 0h3m1 0h3m1 0h1m1 0h2M2 37.5h1m5 0h1m2 0h1m1 0h1m1 0h1m2 0h1m1 0h2m1 0h2m1 0h1m1 0h3m2 0h2m3 0h2m2 0h1M2 38.5h1m1 0h3m1 0h1m1 0h1m2 0h4m2 0h2m1 0h3m2 0h1m2 0h1m1 0h1m1 0h5m1 0h1m1 0h1M2 39.5h1m1 0h3m1 0h1m1 0h3m1 0h3m2 0h2m1 0h3m2 0h1m2 0h1m2 0h3m1 0h1m1 0h2m1 0h1M2 40.5h1m1 0h3m1 0h1m1 0h2m1 0h2m2 0h1m2 0h3m2 0h3m1 0h3m3 0h4m1 0h2M2 41.5h1m5 0h1m3 0h4m4 0h1m1 0h3m1 0h1m1 0h1m4 0h4m1 0h2m1 0h1M2 42.5h7m3 0h3m3 0h1m1 0h4m2 0h2m1 0h1m1 0h3m3 0h4"/></svg>
